<mxfile host="drawio-plugin" modified="2025-08-24T02:16:09.569Z" agent="5.0 (Windows NT 10.0; Win64; x64) AppleWebKit/537.36 (KHTML, like Gecko) Chrome/111.0.0.0 Safari/537.36" version="20.5.3" etag="FfYd11nRAuLuPabQTgM1" type="embed"><diagram id="y11OB38MQjgEUTrGh_jN" name="Page-1"><mxGraphModel dx="488" dy="257" grid="1" gridSize="10" guides="1" tooltips="1" connect="1" arrows="1" fold="1" page="1" pageScale="1" pageWidth="850" pageHeight="1100" math="0" shadow="0"><root><mxCell id="0"/><mxCell id="1" parent="0"/><mxCell id="5" style="edgeStyle=orthogonalEdgeStyle;rounded=0;orthogonalLoop=1;jettySize=auto;html=1;entryX=0;entryY=0.5;entryDx=0;entryDy=0;" edge="1" parent="1" source="3" target="4"><mxGeometry relative="1" as="geometry"/></mxCell><mxCell id="3" value="MLFlow" style="rounded=0;whiteSpace=wrap;html=1;" vertex="1" parent="1"><mxGeometry x="60" y="160" width="120" height="60" as="geometry"/></mxCell><mxCell id="4" value="StreamLit" style="rounded=0;whiteSpace=wrap;html=1;" vertex="1" parent="1"><mxGeometry x="290" y="160" width="120" height="60" as="geometry"/></mxCell><mxCell id="11" style="edgeStyle=orthogonalEdgeStyle;rounded=0;orthogonalLoop=1;jettySize=auto;html=1;entryX=0.5;entryY=0;entryDx=0;entryDy=0;" edge="1" parent="1" source="6" target="3"><mxGeometry relative="1" as="geometry"/></mxCell><mxCell id="6" value="train.py" style="shape=note;whiteSpace=wrap;html=1;backgroundOutline=1;darkOpacity=0.05;" vertex="1" parent="1"><mxGeometry x="80" width="80" height="100" as="geometry"/></mxCell></root></mxGraphModel></diagram></mxfile>